solid ASCII
  facet normal -7.071068e-01 -7.071068e-01 -8.519882e-17
    outer loop
      vertex   1.094500e+02 5.787258e+00 6.800000e+00
      vertex   1.094500e+02 5.787258e+00 5.840000e+01
      vertex   1.062373e+02 9.000000e+00 1.001274e+01
    endloop
  endfacet
  facet normal -7.071068e-01 -7.071068e-01 0.000000e+00
    outer loop
      vertex   1.062373e+02 9.000000e+00 1.001274e+01
      vertex   1.094500e+02 5.787258e+00 5.840000e+01
      vertex   1.062373e+02 9.000000e+00 5.840000e+01
    endloop
  endfacet
  facet normal -1.000000e+00 0.000000e+00 0.000000e+00
    outer loop
      vertex   1.094500e+02 4.300000e+00 6.800000e+00
      vertex   1.094500e+02 4.300000e+00 5.840000e+01
      vertex   1.094500e+02 5.787258e+00 6.800000e+00
    endloop
  endfacet
  facet normal -1.000000e+00 0.000000e+00 0.000000e+00
    outer loop
      vertex   1.094500e+02 5.787258e+00 6.800000e+00
      vertex   1.094500e+02 4.300000e+00 5.840000e+01
      vertex   1.094500e+02 5.787258e+00 5.840000e+01
    endloop
  endfacet
  facet normal 1.042385e-16 -7.071068e-01 7.071068e-01
    outer loop
      vertex   1.305000e+01 5.787258e+00 6.800000e+00
      vertex   1.094500e+02 5.787258e+00 6.800000e+00
      vertex   1.626274e+01 9.000000e+00 1.001274e+01
    endloop
  endfacet
  facet normal 1.535636e-16 -7.071068e-01 7.071068e-01
    outer loop
      vertex   1.626274e+01 9.000000e+00 1.001274e+01
      vertex   1.094500e+02 5.787258e+00 6.800000e+00
      vertex   1.062373e+02 9.000000e+00 1.001274e+01
    endloop
  endfacet
  facet normal -0.000000e+00 1.000000e+00 0.000000e+00
    outer loop
      vertex   1.305000e+01 4.300000e+00 5.840000e+01
      vertex   1.094500e+02 4.300000e+00 5.840000e+01
      vertex   1.305000e+01 4.300000e+00 6.800000e+00
    endloop
  endfacet
  facet normal 0.000000e+00 1.000000e+00 0.000000e+00
    outer loop
      vertex   1.305000e+01 4.300000e+00 6.800000e+00
      vertex   1.094500e+02 4.300000e+00 5.840000e+01
      vertex   1.094500e+02 4.300000e+00 6.800000e+00
    endloop
  endfacet
  facet normal 1.842694e-17 2.388767e-15 1.000000e+00
    outer loop
      vertex   1.094500e+02 5.787258e+00 6.800000e+00
      vertex   1.305000e+01 5.787258e+00 6.800000e+00
      vertex   1.094500e+02 4.300000e+00 6.800000e+00
    endloop
  endfacet
  facet normal 0.000000e+00 1.194384e-15 1.000000e+00
    outer loop
      vertex   1.094500e+02 4.300000e+00 6.800000e+00
      vertex   1.305000e+01 5.787258e+00 6.800000e+00
      vertex   1.305000e+01 4.300000e+00 6.800000e+00
    endloop
  endfacet
  facet normal 7.071068e-01 -7.071068e-01 -3.651378e-17
    outer loop
      vertex   1.305000e+01 5.787258e+00 6.800000e+00
      vertex   1.626274e+01 9.000000e+00 1.001274e+01
      vertex   1.305000e+01 5.787258e+00 5.840000e+01
    endloop
  endfacet
  facet normal 7.071068e-01 -7.071068e-01 0.000000e+00
    outer loop
      vertex   1.305000e+01 5.787258e+00 5.840000e+01
      vertex   1.626274e+01 9.000000e+00 1.001274e+01
      vertex   1.626274e+01 9.000000e+00 5.840000e+01
    endloop
  endfacet
  facet normal 1.000000e+00 0.000000e+00 0.000000e+00
    outer loop
      vertex   1.305000e+01 5.787258e+00 6.800000e+00
      vertex   1.305000e+01 5.787258e+00 5.840000e+01
      vertex   1.305000e+01 4.300000e+00 6.800000e+00
    endloop
  endfacet
  facet normal 1.000000e+00 0.000000e+00 0.000000e+00
    outer loop
      vertex   1.305000e+01 4.300000e+00 6.800000e+00
      vertex   1.305000e+01 5.787258e+00 5.840000e+01
      vertex   1.305000e+01 4.300000e+00 5.840000e+01
    endloop
  endfacet
  facet normal 0.000000e+00 -0.000000e+00 -1.000000e+00
    outer loop
      vertex   1.626274e+01 9.000000e+00 5.840000e+01
      vertex   1.062373e+02 9.000000e+00 5.840000e+01
      vertex   1.305000e+01 5.787258e+00 5.840000e+01
    endloop
  endfacet
  facet normal 0.000000e+00 0.000000e+00 -1.000000e+00
    outer loop
      vertex   1.305000e+01 5.787258e+00 5.840000e+01
      vertex   1.062373e+02 9.000000e+00 5.840000e+01
      vertex   1.094500e+02 5.787258e+00 5.840000e+01
    endloop
  endfacet
  facet normal 0.000000e+00 0.000000e+00 -1.000000e+00
    outer loop
      vertex   1.305000e+01 5.787258e+00 5.840000e+01
      vertex   1.094500e+02 5.787258e+00 5.840000e+01
      vertex   1.305000e+01 4.300000e+00 5.840000e+01
    endloop
  endfacet
  facet normal 0.000000e+00 0.000000e+00 -1.000000e+00
    outer loop
      vertex   1.305000e+01 4.300000e+00 5.840000e+01
      vertex   1.094500e+02 5.787258e+00 5.840000e+01
      vertex   1.094500e+02 4.300000e+00 5.840000e+01
    endloop
  endfacet
  facet normal 7.071068e-01 7.071068e-01 -0.000000e+00
    outer loop
      vertex   1.110000e+02 6.500000e+00 5.250000e+00
      vertex   1.085000e+02 9.000000e+00 7.750000e+00
      vertex   1.110000e+02 6.500000e+00 6.000000e+01
    endloop
  endfacet
  facet normal 7.071068e-01 7.071068e-01 0.000000e+00
    outer loop
      vertex   1.110000e+02 6.500000e+00 6.000000e+01
      vertex   1.085000e+02 9.000000e+00 7.750000e+00
      vertex   1.085000e+02 9.000000e+00 6.000000e+01
    endloop
  endfacet
  facet normal 1.000000e+00 0.000000e+00 0.000000e+00
    outer loop
      vertex   1.110500e+02 2.700000e+00 5.200000e+00
      vertex   1.110500e+02 6.500000e+00 5.200000e+00
      vertex   1.110500e+02 2.700000e+00 6.000000e+01
    endloop
  endfacet
  facet normal 1.000000e+00 -0.000000e+00 0.000000e+00
    outer loop
      vertex   1.110500e+02 2.700000e+00 6.000000e+01
      vertex   1.110500e+02 6.500000e+00 5.200000e+00
      vertex   1.110500e+02 6.500000e+00 6.000000e+01
    endloop
  endfacet
  facet normal 0.000000e+00 7.071068e-01 -7.071068e-01
    outer loop
      vertex   1.110000e+02 6.500000e+00 5.250000e+00
      vertex   1.150000e+01 6.500000e+00 5.250000e+00
      vertex   1.085000e+02 9.000000e+00 7.750000e+00
    endloop
  endfacet
  facet normal 0.000000e+00 7.071068e-01 -7.071068e-01
    outer loop
      vertex   1.085000e+02 9.000000e+00 7.750000e+00
      vertex   1.150000e+01 6.500000e+00 5.250000e+00
      vertex   1.400000e+01 9.000000e+00 7.750000e+00
    endloop
  endfacet
  facet normal -0.000000e+00 -1.000000e+00 -0.000000e+00
    outer loop
      vertex   1.110500e+02 2.700000e+00 6.000000e+01
      vertex   1.145000e+01 2.700000e+00 6.000000e+01
      vertex   1.110500e+02 2.700000e+00 5.200000e+00
    endloop
  endfacet
  facet normal 0.000000e+00 -1.000000e+00 0.000000e+00
    outer loop
      vertex   1.110500e+02 2.700000e+00 5.200000e+00
      vertex   1.145000e+01 2.700000e+00 6.000000e+01
      vertex   1.145000e+01 2.700000e+00 5.200000e+00
    endloop
  endfacet
  facet normal 0.000000e+00 -0.000000e+00 -1.000000e+00
    outer loop
      vertex   1.145000e+01 6.500000e+00 5.200000e+00
      vertex   1.110500e+02 6.500000e+00 5.200000e+00
      vertex   1.145000e+01 2.700000e+00 5.200000e+00
    endloop
  endfacet
  facet normal 0.000000e+00 0.000000e+00 -1.000000e+00
    outer loop
      vertex   1.145000e+01 2.700000e+00 5.200000e+00
      vertex   1.110500e+02 6.500000e+00 5.200000e+00
      vertex   1.110500e+02 2.700000e+00 5.200000e+00
    endloop
  endfacet
  facet normal -7.071068e-01 7.071068e-01 0.000000e+00
    outer loop
      vertex   1.150000e+01 6.500000e+00 5.250000e+00
      vertex   1.150000e+01 6.500000e+00 6.000000e+01
      vertex   1.400000e+01 9.000000e+00 7.750000e+00
    endloop
  endfacet
  facet normal -7.071068e-01 7.071068e-01 0.000000e+00
    outer loop
      vertex   1.400000e+01 9.000000e+00 7.750000e+00
      vertex   1.150000e+01 6.500000e+00 6.000000e+01
      vertex   1.400000e+01 9.000000e+00 6.000000e+01
    endloop
  endfacet
  facet normal -7.850462e-16 1.000000e+00 0.000000e+00
    outer loop
      vertex   1.062373e+02 9.000000e+00 5.840000e+01
      vertex   1.085000e+02 9.000000e+00 6.000000e+01
      vertex   1.062373e+02 9.000000e+00 1.001274e+01
    endloop
  endfacet
  facet normal -7.850462e-16 1.000000e+00 0.000000e+00
    outer loop
      vertex   1.062373e+02 9.000000e+00 1.001274e+01
      vertex   1.085000e+02 9.000000e+00 6.000000e+01
      vertex   1.085000e+02 9.000000e+00 7.750000e+00
    endloop
  endfacet
  facet normal 0.000000e+00 1.000000e+00 7.850462e-16
    outer loop
      vertex   1.062373e+02 9.000000e+00 1.001274e+01
      vertex   1.085000e+02 9.000000e+00 7.750000e+00
      vertex   1.400000e+01 9.000000e+00 7.750000e+00
    endloop
  endfacet
  facet normal 0.000000e+00 1.000000e+00 -1.110223e-15
    outer loop
      vertex   1.062373e+02 9.000000e+00 5.840000e+01
      vertex   1.626274e+01 9.000000e+00 5.840000e+01
      vertex   1.085000e+02 9.000000e+00 6.000000e+01
    endloop
  endfacet
  facet normal 0.000000e+00 1.000000e+00 -1.110223e-15
    outer loop
      vertex   1.085000e+02 9.000000e+00 6.000000e+01
      vertex   1.626274e+01 9.000000e+00 5.840000e+01
      vertex   1.400000e+01 9.000000e+00 6.000000e+01
    endloop
  endfacet
  facet normal 7.850462e-16 1.000000e+00 0.000000e+00
    outer loop
      vertex   1.400000e+01 9.000000e+00 6.000000e+01
      vertex   1.626274e+01 9.000000e+00 5.840000e+01
      vertex   1.626274e+01 9.000000e+00 1.001274e+01
    endloop
  endfacet
  facet normal 7.850462e-16 1.000000e+00 0.000000e+00
    outer loop
      vertex   1.400000e+01 9.000000e+00 6.000000e+01
      vertex   1.626274e+01 9.000000e+00 1.001274e+01
      vertex   1.400000e+01 9.000000e+00 7.750000e+00
    endloop
  endfacet
  facet normal 1.704899e-31 1.000000e+00 7.850462e-16
    outer loop
      vertex   1.400000e+01 9.000000e+00 7.750000e+00
      vertex   1.626274e+01 9.000000e+00 1.001274e+01
      vertex   1.062373e+02 9.000000e+00 1.001274e+01
    endloop
  endfacet
  facet normal -1.000000e+00 9.349247e-16 3.241527e-17
    outer loop
      vertex   1.145000e+01 6.500000e+00 5.200000e+00
      vertex   1.145000e+01 2.700000e+00 5.200000e+00
      vertex   1.145000e+01 6.500000e+00 6.000000e+01
    endloop
  endfacet
  facet normal -1.000000e+00 1.402387e-15 0.000000e+00
    outer loop
      vertex   1.145000e+01 6.500000e+00 6.000000e+01
      vertex   1.145000e+01 2.700000e+00 5.200000e+00
      vertex   1.145000e+01 2.700000e+00 6.000000e+01
    endloop
  endfacet
  facet normal 3.549472e-14 1.000000e+00 -3.241527e-17
    outer loop
      vertex   1.110500e+02 6.500000e+00 6.000000e+01
      vertex   1.110500e+02 6.500000e+00 5.200000e+00
      vertex   1.110000e+02 6.500000e+00 5.250000e+00
    endloop
  endfacet
  facet normal 0.000000e+00 1.000000e+00 -3.552714e-14
    outer loop
      vertex   1.110000e+02 6.500000e+00 5.250000e+00
      vertex   1.110500e+02 6.500000e+00 5.200000e+00
      vertex   1.145000e+01 6.500000e+00 5.200000e+00
    endloop
  endfacet
  facet normal 0.000000e+00 1.000000e+00 -3.552714e-14
    outer loop
      vertex   1.110000e+02 6.500000e+00 5.250000e+00
      vertex   1.145000e+01 6.500000e+00 5.200000e+00
      vertex   1.150000e+01 6.500000e+00 5.250000e+00
    endloop
  endfacet
  facet normal -3.549472e-14 1.000000e+00 -3.241527e-17
    outer loop
      vertex   1.150000e+01 6.500000e+00 5.250000e+00
      vertex   1.145000e+01 6.500000e+00 5.200000e+00
      vertex   1.145000e+01 6.500000e+00 6.000000e+01
    endloop
  endfacet
  facet normal 0.000000e+00 1.000000e+00 -0.000000e+00
    outer loop
      vertex   1.150000e+01 6.500000e+00 5.250000e+00
      vertex   1.145000e+01 6.500000e+00 6.000000e+01
      vertex   1.150000e+01 6.500000e+00 6.000000e+01
    endloop
  endfacet
  facet normal 0.000000e+00 1.000000e+00 0.000000e+00
    outer loop
      vertex   1.110000e+02 6.500000e+00 5.250000e+00
      vertex   1.110000e+02 6.500000e+00 6.000000e+01
      vertex   1.110500e+02 6.500000e+00 6.000000e+01
    endloop
  endfacet
  facet normal -0.000000e+00 0.000000e+00 1.000000e+00
    outer loop
      vertex   1.145000e+01 6.500000e+00 6.000000e+01
      vertex   1.145000e+01 2.700000e+00 6.000000e+01
      vertex   1.150000e+01 6.500000e+00 6.000000e+01
    endloop
  endfacet
  facet normal 0.000000e+00 0.000000e+00 1.000000e+00
    outer loop
      vertex   1.150000e+01 6.500000e+00 6.000000e+01
      vertex   1.145000e+01 2.700000e+00 6.000000e+01
      vertex   1.110500e+02 2.700000e+00 6.000000e+01
    endloop
  endfacet
  facet normal -0.000000e+00 0.000000e+00 1.000000e+00
    outer loop
      vertex   1.150000e+01 6.500000e+00 6.000000e+01
      vertex   1.110500e+02 2.700000e+00 6.000000e+01
      vertex   1.110000e+02 6.500000e+00 6.000000e+01
    endloop
  endfacet
  facet normal -0.000000e+00 0.000000e+00 1.000000e+00
    outer loop
      vertex   1.110000e+02 6.500000e+00 6.000000e+01
      vertex   1.110500e+02 2.700000e+00 6.000000e+01
      vertex   1.110500e+02 6.500000e+00 6.000000e+01
    endloop
  endfacet
  facet normal 0.000000e+00 0.000000e+00 1.000000e+00
    outer loop
      vertex   1.085000e+02 9.000000e+00 6.000000e+01
      vertex   1.400000e+01 9.000000e+00 6.000000e+01
      vertex   1.110000e+02 6.500000e+00 6.000000e+01
    endloop
  endfacet
  facet normal 0.000000e+00 0.000000e+00 1.000000e+00
    outer loop
      vertex   1.110000e+02 6.500000e+00 6.000000e+01
      vertex   1.400000e+01 9.000000e+00 6.000000e+01
      vertex   1.150000e+01 6.500000e+00 6.000000e+01
    endloop
  endfacet
endsolid
